# xmcd CD database file
#
# Track frame offsets:
#	150
#	14610
#	28098
#	39458
#	55953
#	66813
#	85433
#	97450
#	113048
#	127955
#	141213
#	157455
#
# Disc length: 2262 seconds
#
# Revision: 0
# Processed by: cddbd v1.4PL0 Copyright (c) Steve Scherf et al.
# Submitted via: CDex 1.40Release
#
DISCID=b208d40c
DTITLE=Dagmar - the Lady of Country - fahr´ nochmal mit mir nach Nashville
DYEAR=1997
DGENRE=Country
TTITLE0=Fahr´ nochmal mit mir nach Nashville
TTITLE1=Lass mich damit bloss in Ruhe
TTITLE2=Von dir hab´ ich die Nase voll
TTITLE3=Ich fahr´ Laster wie Papa
TTITLE4=Immer nur du
TTITLE5=In so einem zärtlichen Augenblick
TTITLE6=Pures Gold
TTITLE7=Mein größter Schatz der liegt zu Haus
TTITLE8=Ich lieb´ dich noch in hundert Jahren
TTITLE9=Ich küss die Sterne
TTITLE10=Heute Abend bin ich nicht allein
TTITLE11=Goldener Truck
EXTD=YEAR: 1997 ID3G: 2
EXTT0=
EXTT1=
EXTT2=
EXTT3=
EXTT4=
EXTT5=
EXTT6=
EXTT7=
EXTT8=
EXTT9=
EXTT10=
EXTT11=
PLAYORDER=
